<svg width="129" height="166" viewBox="0 0 129 166" fill="none" xmlns="http://www.w3.org/2000/svg">
<g id="Group 39874">
<path id="Vector" fill-rule="evenodd" clip-rule="evenodd" d="M38.8393 14.1806C35.5589 19.6675 34.3493 23.2576 33.3282 30.9899C31.2127 46.0587 32.4827 57.4667 36.6712 62.8958C37.6932 64.162 38.9741 65.3603 39.5059 65.4699C40.3476 65.7333 40.2529 65.2923 38.9658 62.5901C38.1467 60.8705 37.1746 57.9505 36.8106 56.1924C35.5295 49.5015 37.2474 31.725 40.2083 21.4387C42.009 15.0881 42.4378 11.9868 41.6795 11.0193C41.2988 10.4749 40.6423 11.212 38.8393 14.1806Z" fill="#D8B4FE" fill-opacity="0.6"/>
<path id="Vector_2" fill-rule="evenodd" clip-rule="evenodd" d="M19.1155 33.049C17.48 38.1152 16.7761 43.5189 16.8178 50.9848C16.9128 72.185 23.0217 83.7607 36.878 89.3518C42.5406 91.606 48.5541 92.4814 63.4175 93.3055C78.4038 94.1325 84.6819 95.0664 91.0174 97.3569C99.1031 100.327 105.737 105.372 111.393 112.876C114.994 117.682 117.541 123.284 119.558 131.137C120.52 134.904 121.538 137.919 121.897 138.05C122.616 138.31 123.362 134.996 123.414 131.231C123.478 126.612 122.337 122.088 119.546 116.356C112.299 101.398 99.3906 91.7938 82.6001 89.0521C79.52 88.5878 71.0693 87.8461 63.7654 87.5239C48.9473 86.7951 45.0221 86.3152 39.5489 84.5735C32.8275 82.4668 26.475 76.254 23.9415 69.3168C21.7162 63.0141 20.5917 50.1529 21.1403 36.4332C21.2913 32.6215 21.3606 29.39 21.289 29.2396C20.9141 28.4524 20.2954 29.6513 19.1155 33.049Z" fill="#D8B4FE" fill-opacity="0.6"/>
</g>
</svg>
